<svg width="19" height="27" viewBox="0 0 19 27" fill="none" xmlns="http://www.w3.org/2000/svg">
<mask id="path-1-inside-1_957_18800" fill="white">
<path d="M1.35157 0.211231C1.19845 0.331543 1.18751 0.577637 1.3297 0.714355C1.38985 0.763575 3.06876 1.57842 5.07032 2.51357C7.07188 3.4542 8.71251 4.23076 8.71798 4.23623C8.72892 4.2417 8.64688 4.42217 8.54298 4.62998C8.0836 5.52139 8.22579 6.50576 8.91485 7.18936C9.27032 7.54482 9.5547 7.69795 10.0524 7.80186C10.7633 7.94951 11.507 7.72529 12.0266 7.20576C12.2891 6.94326 12.6172 6.36904 12.6172 6.1667C12.6172 6.11748 12.6336 6.07373 12.65 6.07373C12.6828 6.07373 12.9016 6.18311 12.9453 6.22139C12.9563 6.23232 13.0219 6.77373 13.082 7.41904L13.1969 8.58936L12.8086 8.7042C12.6008 8.76982 12.1524 8.90108 11.8133 8.99951L11.2008 9.17998L10.0086 8.53467C8.83829 7.90029 8.77813 7.87842 7.06641 7.29873L5.31642 6.70811L3.8672 5.39014C3.06876 4.66826 2.27579 3.94639 2.10079 3.78779C1.65782 3.38857 1.58126 3.39951 1.0672 3.92451C0.596885 4.4167 0.536728 4.53701 0.673447 4.75029C0.810166 4.95811 3.2547 8.0917 3.42423 8.27764C3.50079 8.36514 4.11876 8.78076 4.79688 9.20186C5.47501 9.62295 6.03829 9.97842 6.04923 9.98936C6.0711 10.0058 4.98282 15.2667 4.90626 15.4854C4.88438 15.5675 4.28829 16.4644 3.59376 17.4815C2.89376 18.4987 2.30313 19.3956 2.27579 19.4722C2.21563 19.6581 1.23673 25.4659 1.23126 25.6683C1.22579 25.7776 1.26954 25.8706 1.35157 25.9362C1.45548 26.0183 1.57579 26.0347 2.2047 26.0347C2.8336 26.0347 2.95392 26.0183 3.03595 25.9362C3.08517 25.887 3.55548 24.7331 4.08048 23.3823L5.03204 20.9214L5.8797 20.4019C6.34454 20.1175 6.7547 19.8769 6.78751 19.8659C6.82032 19.8604 7.02267 20.1995 7.23048 20.6261L7.61329 21.4026L10.3914 23.7214L13.1641 26.0347H13.9734C14.6133 26.0347 14.8047 26.0183 14.9031 25.9472C15.1766 25.7558 15.1602 25.7229 12.7703 22.3815L10.5172 19.2315L10.3039 17.487L10.0906 15.7479L10.4297 14.5339C10.6156 13.8667 10.7906 13.2323 10.8234 13.1284C10.8727 12.9479 10.9656 12.8878 12.9617 11.7886C14.1102 11.1542 15.1055 10.5909 15.182 10.5253C15.3461 10.3831 15.3516 10.4104 15.1055 8.7042C14.9961 7.93857 14.9195 7.28232 14.925 7.23857C14.9359 7.19482 15.5047 7.43545 16.6258 7.96045C17.55 8.39795 18.3539 8.75342 18.4141 8.75342C18.6656 8.75342 18.8297 8.39795 18.6766 8.19014C18.6383 8.14092 17.7469 7.69795 16.6914 7.20576L14.7774 6.30889L14.7172 5.91514C14.6242 5.29717 14.5313 5.25889 13.7766 5.48857L13.3172 5.63076L12.9672 5.45576C12.6992 5.32451 12.6172 5.25889 12.6172 5.16592C12.6172 4.96358 12.2836 4.37842 12.0156 4.11045C11.4852 3.59639 10.7633 3.37764 10.0633 3.52529C9.85001 3.56904 9.60392 3.64014 9.52188 3.68389C9.3797 3.76045 9.34141 3.74951 8.87657 3.53076C8.60313 3.40498 6.8586 2.58467 4.99923 1.7042C3.13985 0.829199 1.58673 0.112793 1.54845 0.112793C1.5047 0.112793 1.4172 0.156544 1.35157 0.211231ZM10.9984 4.26904C11.343 4.40029 11.6711 4.69561 11.8242 5.00732C11.9719 5.31904 11.9992 5.9042 11.8789 6.22139C11.4305 7.39717 9.75157 7.50654 9.15001 6.40732C8.60313 5.40108 9.31954 4.18154 10.468 4.16514C10.5938 4.15967 10.8344 4.20889 10.9984 4.26904ZM3.44063 5.95889L4.96095 7.33701L6.76563 7.94404C8.53204 8.5292 8.59766 8.55654 9.68048 9.14717C10.2875 9.48076 10.7961 9.75967 10.807 9.77608C10.9 9.85264 10.2492 12.6362 9.66407 14.6815L9.38517 15.6659L9.60392 17.4706C9.7297 18.4659 9.85001 19.3464 9.87735 19.4229C9.91016 19.5269 12.8414 23.6776 13.9734 25.2253C14.0391 25.3183 14.0227 25.3237 13.7274 25.3183H13.4102L10.7906 23.1472L8.17657 20.9761L6.89142 18.3237L5.60626 15.6714L6.18595 12.8276C6.50313 11.2636 6.76563 9.91826 6.76563 9.8417C6.76563 9.76514 6.73282 9.6667 6.70001 9.61748C6.66173 9.56826 6.08751 9.19092 5.42579 8.77529C4.76407 8.36514 4.15704 7.98232 4.07501 7.92217C3.99845 7.86748 3.3586 7.09639 2.66407 6.20498L1.40079 4.58623L1.5211 4.45498L1.64688 4.32373L1.7836 4.44951C1.86017 4.52061 2.60938 5.19873 3.44063 5.95889ZM14.3453 8.26123C14.4875 9.26748 14.5805 10.0987 14.5531 10.1097C14.5258 10.1151 13.7547 10.5417 12.8359 11.0448C11.9172 11.5534 11.1625 11.9636 11.1516 11.9526C11.1461 11.9472 11.2008 11.63 11.2774 11.2526C11.3539 10.8753 11.4305 10.4214 11.4469 10.2409C11.4688 10.0604 11.4961 9.89092 11.518 9.85811C11.5344 9.83076 11.9063 9.70498 12.3438 9.5792C13.5852 9.21826 13.8149 9.13623 13.875 9.02139C13.9188 8.95029 13.9024 8.57295 13.8203 7.75811C13.7602 7.11826 13.6945 6.5167 13.6836 6.41826C13.6563 6.2542 13.6672 6.23779 13.8313 6.19404C13.9953 6.15029 14.0172 6.15576 14.05 6.28701C14.0719 6.36357 14.2031 7.25498 14.3453 8.26123ZM5.87423 17.8261L6.53048 19.1823L5.51876 19.8058C4.96642 20.1448 4.4797 20.4729 4.44142 20.5386C4.4086 20.5987 3.9711 21.6979 3.47892 22.9831L2.58204 25.3237H2.29767C2.06798 25.3237 2.00782 25.3073 2.00782 25.2362C2.00782 25.187 2.2211 23.9183 2.47813 22.4144L2.94298 19.6745L4.0422 18.0667C4.64923 17.1862 5.15782 16.4644 5.1797 16.4644C5.1961 16.4644 5.50782 17.0769 5.87423 17.8261Z"/>
</mask>
<path d="M1.35157 0.211231C1.19845 0.331543 1.18751 0.577637 1.3297 0.714355C1.38985 0.763575 3.06876 1.57842 5.07032 2.51357C7.07188 3.4542 8.71251 4.23076 8.71798 4.23623C8.72892 4.2417 8.64688 4.42217 8.54298 4.62998C8.0836 5.52139 8.22579 6.50576 8.91485 7.18936C9.27032 7.54482 9.5547 7.69795 10.0524 7.80186C10.7633 7.94951 11.507 7.72529 12.0266 7.20576C12.2891 6.94326 12.6172 6.36904 12.6172 6.1667C12.6172 6.11748 12.6336 6.07373 12.65 6.07373C12.6828 6.07373 12.9016 6.18311 12.9453 6.22139C12.9563 6.23232 13.0219 6.77373 13.082 7.41904L13.1969 8.58936L12.8086 8.7042C12.6008 8.76982 12.1524 8.90108 11.8133 8.99951L11.2008 9.17998L10.0086 8.53467C8.83829 7.90029 8.77813 7.87842 7.06641 7.29873L5.31642 6.70811L3.8672 5.39014C3.06876 4.66826 2.27579 3.94639 2.10079 3.78779C1.65782 3.38857 1.58126 3.39951 1.0672 3.92451C0.596885 4.4167 0.536728 4.53701 0.673447 4.75029C0.810166 4.95811 3.2547 8.0917 3.42423 8.27764C3.50079 8.36514 4.11876 8.78076 4.79688 9.20186C5.47501 9.62295 6.03829 9.97842 6.04923 9.98936C6.0711 10.0058 4.98282 15.2667 4.90626 15.4854C4.88438 15.5675 4.28829 16.4644 3.59376 17.4815C2.89376 18.4987 2.30313 19.3956 2.27579 19.4722C2.21563 19.6581 1.23673 25.4659 1.23126 25.6683C1.22579 25.7776 1.26954 25.8706 1.35157 25.9362C1.45548 26.0183 1.57579 26.0347 2.2047 26.0347C2.8336 26.0347 2.95392 26.0183 3.03595 25.9362C3.08517 25.887 3.55548 24.7331 4.08048 23.3823L5.03204 20.9214L5.8797 20.4019C6.34454 20.1175 6.7547 19.8769 6.78751 19.8659C6.82032 19.8604 7.02267 20.1995 7.23048 20.6261L7.61329 21.4026L10.3914 23.7214L13.1641 26.0347H13.9734C14.6133 26.0347 14.8047 26.0183 14.9031 25.9472C15.1766 25.7558 15.1602 25.7229 12.7703 22.3815L10.5172 19.2315L10.3039 17.487L10.0906 15.7479L10.4297 14.5339C10.6156 13.8667 10.7906 13.2323 10.8234 13.1284C10.8727 12.9479 10.9656 12.8878 12.9617 11.7886C14.1102 11.1542 15.1055 10.5909 15.182 10.5253C15.3461 10.3831 15.3516 10.4104 15.1055 8.7042C14.9961 7.93857 14.9195 7.28232 14.925 7.23857C14.9359 7.19482 15.5047 7.43545 16.6258 7.96045C17.55 8.39795 18.3539 8.75342 18.4141 8.75342C18.6656 8.75342 18.8297 8.39795 18.6766 8.19014C18.6383 8.14092 17.7469 7.69795 16.6914 7.20576L14.7774 6.30889L14.7172 5.91514C14.6242 5.29717 14.5313 5.25889 13.7766 5.48857L13.3172 5.63076L12.9672 5.45576C12.6992 5.32451 12.6172 5.25889 12.6172 5.16592C12.6172 4.96358 12.2836 4.37842 12.0156 4.11045C11.4852 3.59639 10.7633 3.37764 10.0633 3.52529C9.85001 3.56904 9.60392 3.64014 9.52188 3.68389C9.3797 3.76045 9.34141 3.74951 8.87657 3.53076C8.60313 3.40498 6.8586 2.58467 4.99923 1.7042C3.13985 0.829199 1.58673 0.112793 1.54845 0.112793C1.5047 0.112793 1.4172 0.156544 1.35157 0.211231ZM10.9984 4.26904C11.343 4.40029 11.6711 4.69561 11.8242 5.00732C11.9719 5.31904 11.9992 5.9042 11.8789 6.22139C11.4305 7.39717 9.75157 7.50654 9.15001 6.40732C8.60313 5.40108 9.31954 4.18154 10.468 4.16514C10.5938 4.15967 10.8344 4.20889 10.9984 4.26904ZM3.44063 5.95889L4.96095 7.33701L6.76563 7.94404C8.53204 8.5292 8.59766 8.55654 9.68048 9.14717C10.2875 9.48076 10.7961 9.75967 10.807 9.77608C10.9 9.85264 10.2492 12.6362 9.66407 14.6815L9.38517 15.6659L9.60392 17.4706C9.7297 18.4659 9.85001 19.3464 9.87735 19.4229C9.91016 19.5269 12.8414 23.6776 13.9734 25.2253C14.0391 25.3183 14.0227 25.3237 13.7274 25.3183H13.4102L10.7906 23.1472L8.17657 20.9761L6.89142 18.3237L5.60626 15.6714L6.18595 12.8276C6.50313 11.2636 6.76563 9.91826 6.76563 9.8417C6.76563 9.76514 6.73282 9.6667 6.70001 9.61748C6.66173 9.56826 6.08751 9.19092 5.42579 8.77529C4.76407 8.36514 4.15704 7.98232 4.07501 7.92217C3.99845 7.86748 3.3586 7.09639 2.66407 6.20498L1.40079 4.58623L1.5211 4.45498L1.64688 4.32373L1.7836 4.44951C1.86017 4.52061 2.60938 5.19873 3.44063 5.95889ZM14.3453 8.26123C14.4875 9.26748 14.5805 10.0987 14.5531 10.1097C14.5258 10.1151 13.7547 10.5417 12.8359 11.0448C11.9172 11.5534 11.1625 11.9636 11.1516 11.9526C11.1461 11.9472 11.2008 11.63 11.2774 11.2526C11.3539 10.8753 11.4305 10.4214 11.4469 10.2409C11.4688 10.0604 11.4961 9.89092 11.518 9.85811C11.5344 9.83076 11.9063 9.70498 12.3438 9.5792C13.5852 9.21826 13.8149 9.13623 13.875 9.02139C13.9188 8.95029 13.9024 8.57295 13.8203 7.75811C13.7602 7.11826 13.6945 6.5167 13.6836 6.41826C13.6563 6.2542 13.6672 6.23779 13.8313 6.19404C13.9953 6.15029 14.0172 6.15576 14.05 6.28701C14.0719 6.36357 14.2031 7.25498 14.3453 8.26123ZM5.87423 17.8261L6.53048 19.1823L5.51876 19.8058C4.96642 20.1448 4.4797 20.4729 4.44142 20.5386C4.4086 20.5987 3.9711 21.6979 3.47892 22.9831L2.58204 25.3237H2.29767C2.06798 25.3237 2.00782 25.3073 2.00782 25.2362C2.00782 25.187 2.2211 23.9183 2.47813 22.4144L2.94298 19.6745L4.0422 18.0667C4.64923 17.1862 5.15782 16.4644 5.1797 16.4644C5.1961 16.4644 5.50782 17.0769 5.87423 17.8261Z" fill="#D9D9D9" stroke="white" stroke-width="20" mask="url(#path-1-inside-1_957_18800)"/>
</svg>
