<svg width="29" height="29" viewBox="0 0 29 29" fill="none" xmlns="http://www.w3.org/2000/svg">
<g clip-path="url(#clip0_957_18827)">
<path d="M16.4078 0.161404C15.9375 0.259841 15.2539 0.604373 14.8602 0.943435C13.2633 2.29422 13.143 4.72234 14.5977 6.19344C15.7297 7.3364 17.3868 7.61531 18.8305 6.8989C19.4703 6.57625 20.0774 5.96375 20.3891 5.3239C20.6899 4.7114 20.7829 4.31765 20.7829 3.68328C20.7829 3.05437 20.6899 2.64968 20.4055 2.07C19.6891 0.609841 18.0211 -0.188596 16.4078 0.161404ZM18.0211 2.03719C18.65 2.3489 18.9946 2.87937 19.0219 3.60125C19.0493 4.19187 18.9016 4.58562 18.5188 4.96844C18.0922 5.38953 17.7969 5.51531 17.2008 5.51531C16.7797 5.51531 16.6649 5.49344 16.4078 5.37312C15.2922 4.84265 14.975 3.3825 15.7789 2.49109C16.2274 1.99343 16.6594 1.81297 17.2993 1.84578C17.5727 1.85672 17.7532 1.90593 18.0211 2.03719Z" fill="#FAFAFA"/>
<path d="M24.6274 6.55426C23.7852 6.78395 23.036 7.21598 21.0235 8.62692C20.6789 8.86754 20.3563 8.96051 20.0828 8.90036C20.0008 8.88395 19.3938 8.69801 18.7321 8.49567C14.3516 7.13395 14.6633 7.21051 13.5696 7.25426C13.1375 7.27067 12.6071 7.33629 12.3063 7.40192C9.63206 7.98708 6.04456 10.2402 5.26253 11.8316C4.96174 12.4441 5.12034 13.0457 5.64534 13.3027C6.12659 13.5324 6.78284 13.4558 8.39612 12.9746C10.343 12.3949 11.2071 12.2144 12.0219 12.2144C12.6125 12.2144 12.5852 12.1652 12.3008 12.8269C11.4203 14.8504 7.49925 20.2863 2.87268 25.8863C2.13987 26.7722 2.05784 26.9144 2.09612 27.2425C2.12893 27.5215 2.25471 27.7183 2.52268 27.8988C2.78518 28.0847 3.17893 28.041 4.10315 27.7293C6.87581 26.7941 9.35315 25.0824 11.9782 22.2933L12.6617 21.566H13.0172C13.5477 21.566 14.4828 21.6644 14.8492 21.7574C15.6532 21.9707 15.7242 22.0855 15.6805 23.1246C15.6641 23.5402 15.5766 24.2566 15.4727 24.8472C15.3578 25.5254 15.2977 26.0613 15.2922 26.4605C15.2867 27.0238 15.2977 27.084 15.4508 27.3902C15.8227 28.1394 16.5719 28.2816 17.2938 27.7457C18.4313 26.898 20.05 24.016 20.4985 22.0308C20.6461 21.3636 20.6844 20.8933 20.6188 20.4996C20.411 19.2472 19.0985 18.1972 16.6266 17.3004C16.3094 17.1855 16.0578 17.0652 16.0633 17.0324C16.0742 17.005 16.2164 16.7699 16.3805 16.5129C16.8672 15.7691 17.2336 14.8886 17.5016 13.8058C17.5727 13.5324 17.4305 13.5324 18.7047 13.7949C19.7821 14.0136 20.4657 14.0902 21.0672 14.0629C21.5047 14.041 21.625 14.0136 21.9149 13.866C22.8117 13.4066 24.2063 11.9191 25.3438 10.2019C26.4813 8.48473 26.7328 7.50036 26.1805 6.87145C25.8469 6.48864 25.2891 6.37926 24.6274 6.55426ZM24.1516 8.83473C23.5227 9.89567 21.9586 11.7496 21.3242 12.1925C21.1164 12.3347 21.0946 12.3402 20.5477 12.3074C19.9953 12.2746 18.5789 12.0066 17.5508 11.7496C16.8836 11.58 16.643 11.5746 16.4078 11.7332C16.1071 11.941 16.0305 12.0941 15.9157 12.7613C15.6696 14.205 15.3688 14.8996 14.3297 16.4472C12.8477 18.6566 11.6063 20.1933 10.0094 21.7902C8.93753 22.8621 7.96956 23.6824 7.07268 24.2894C6.47112 24.6941 5.84768 25.0769 5.82581 25.055C5.81487 25.0441 6.0555 24.7324 6.35628 24.355C9.94378 19.8816 12.7438 15.9058 13.7282 13.8824C14.1328 13.0566 14.2805 12.5699 14.286 12.0777C14.2914 11.4379 14.0453 11.0386 13.4547 10.7379C13.0008 10.5082 12.5852 10.448 11.7211 10.4808C10.9172 10.5082 10.343 10.6121 9.18362 10.9293C8.80628 11.0332 8.47268 11.1207 8.44534 11.1207C8.32503 11.1152 9.71956 10.2675 10.3649 9.95036C11.7649 9.26129 12.8914 8.96051 13.9469 9.00426L14.5758 9.02614L17.1461 9.83551L19.7164 10.6449H20.2633C20.6899 10.6449 20.8867 10.6175 21.1657 10.5246C21.5922 10.3769 21.7125 10.3058 22.5602 9.69333C23.2383 9.20661 24.168 8.60504 24.2446 8.60504C24.2719 8.60504 24.2282 8.70895 24.1516 8.83473ZM15.7133 18.8371C16.5664 19.1269 17.4414 19.5152 17.9555 19.8324C18.3985 20.1113 18.8469 20.5488 18.8961 20.7621C19.0383 21.3308 18.2946 23.3871 17.425 24.8199C17.2008 25.1918 17.1953 25.1754 17.3157 24.4918C17.3594 24.2183 17.4141 23.6277 17.4305 23.1793C17.4578 22.4629 17.4469 22.3043 17.3485 21.9105C17.2828 21.659 17.168 21.3472 17.0914 21.2105C16.7305 20.598 15.9375 20.155 14.8711 19.98C14.6469 19.9472 14.3789 19.898 14.2696 19.8816L14.0672 19.8433L14.5157 19.2308C14.7563 18.8918 14.975 18.6183 15.0024 18.6129C15.0242 18.6129 15.3414 18.7168 15.7133 18.8371Z" fill="#FAFAFA"/>
</g>
<defs>
<clipPath id="clip0_957_18827">
<rect width="28" height="28" fill="white" transform="translate(0.275024 0.0737305)"/>
</clipPath>
</defs>
</svg>
