<svg width="29" height="29" viewBox="0 0 29 29" fill="none" xmlns="http://www.w3.org/2000/svg">
<path d="M14.349 0.0737305C6.61823 0.0737305 0.348999 6.34296 0.348999 14.0737C0.348999 21.8045 6.61823 28.0737 14.349 28.0737C22.0798 28.0737 28.349 21.8045 28.349 14.0737C28.349 6.34937 22.0798 0.0737305 14.349 0.0737305ZM14.349 0.79168C15.6695 0.79168 16.9387 0.983987 18.1375 1.34296C14.7977 1.9904 12.1631 3.53527 10.4067 5.96476C10.2785 6.1186 10.3169 6.37501 10.4772 6.48399C10.6375 6.59296 10.8939 6.54809 10.99 6.37501C12.8169 3.83655 15.6567 2.32373 19.4131 1.85578C19.4452 1.85578 19.4836 1.85578 19.5157 1.84296C19.5221 1.84296 19.5221 1.84296 19.5285 1.84296C21.4387 2.65065 23.1246 3.90065 24.4516 5.45194H22.24C20.5157 5.45194 18.5605 5.9904 17.0093 7.21476C15.458 8.43912 14.3426 10.3622 14.3426 12.9904V13.843C12.7272 14.6507 11.7721 15.5032 8.95797 15.5032C8.83618 15.5032 8.71438 15.4968 8.599 15.484C8.599 15.4007 8.599 15.3173 8.599 15.1442C8.599 12.3686 9.07336 10.0096 9.97079 8.11219C10.0862 7.88142 9.86823 7.56732 9.61182 7.59296C9.48361 7.60578 9.36823 7.68912 9.32336 7.8045C8.37464 9.82373 7.88746 12.2853 7.88746 15.1378C7.88746 15.2212 7.88746 15.2981 7.88746 15.375C6.65028 15.093 5.58618 14.343 4.68233 13.375C3.52208 12.1378 2.65669 10.5481 2.12464 9.24681C2.10541 9.19553 2.06695 9.15065 2.02208 9.11219C3.98361 4.2404 8.75925 0.79168 14.349 0.79168ZM22.2464 6.1763H25.0285C26.6631 8.38142 27.631 11.1122 27.631 14.0737C27.631 17.5609 26.2849 20.734 24.0862 23.1058C24.4387 22.0289 24.7593 20.6122 24.7593 18.7404C24.7721 15.5417 23.2913 13.0481 21.5862 11.2789C19.958 9.58655 18.1375 8.54168 17.1567 8.06732C17.2593 7.97758 17.3618 7.87501 17.4708 7.78527C18.8682 6.68912 20.6759 6.1763 22.2464 6.1763ZM16.6054 8.61219C16.6375 8.63142 16.6695 8.65065 16.708 8.65706C17.5862 9.06732 19.458 10.1058 21.0734 11.7853C22.6887 13.4648 24.0541 15.7532 24.0477 18.7276V18.7404C24.0477 21.2404 23.4516 22.8366 22.9964 23.9904C22.9708 24.0481 22.9644 24.1122 22.9708 24.1699V24.1827C21.458 25.4712 19.6567 26.4199 17.6759 26.9327C18.458 25.8301 19.381 23.8686 19.381 21.2532C19.3875 18.7853 18.7016 17.266 17.7913 16.2019C16.9259 15.2019 15.9003 14.6058 15.099 13.9263L15.0734 13.9007V12.9904C15.0669 11.1058 15.6759 9.6763 16.6054 8.61219ZM1.66951 10.0801C2.23361 11.3237 3.06054 12.7148 4.15028 13.8686C5.39387 15.1955 7.01567 16.2212 8.96438 16.2276C11.9195 16.234 13.1246 15.2724 14.6631 14.5032C15.5221 15.2276 16.4836 15.7917 17.2464 16.6699C17.7208 17.2212 18.1246 17.9135 18.381 18.8558C16.6887 19.984 14.7721 21.6186 11.1246 21.6186C7.52208 21.6186 4.00284 19.7853 1.35541 16.3686C1.32977 16.3366 1.29772 16.3109 1.26566 16.2917C1.14387 15.5737 1.07336 14.8366 1.07336 14.0801C1.06695 12.6827 1.27849 11.343 1.66951 10.0801ZM1.59259 17.766C4.25284 20.7148 7.63746 22.3301 11.1182 22.3301C14.8169 22.3301 16.9387 20.7019 18.5477 19.6058C18.6246 20.093 18.6631 20.6378 18.6631 21.2532C18.6631 24.3045 17.2336 26.4712 16.6118 27.0994C16.5926 27.1186 16.5734 27.1442 16.5541 27.1699C15.8362 27.2917 15.1054 27.3622 14.3554 27.3622C8.29131 27.3558 3.19515 23.3045 1.59259 17.766Z" fill="#FAFAFA"/>
</svg>
