<svg width="29" height="29" viewBox="0 0 29 29" fill="none" xmlns="http://www.w3.org/2000/svg">
<path d="M25.6379 6.08008C23.3325 7.96265 21.6195 10.4706 20.7046 13.3027C23.2044 14.1346 25.6277 15.1808 27.9474 16.4297C28.08 15.6515 28.1471 14.8636 28.1479 14.0743C28.1519 11.2151 27.2755 8.424 25.6379 6.08008Z" fill="#FAFAFA"/>
<path d="M14.1457 28.0739C16.5184 28.0758 18.8524 27.4721 20.9266 26.3201C19.4012 23.4815 18.1225 19.4557 19.124 14.701C19.1714 14.4757 19.2367 14.2629 19.2897 14.0443C17.5335 13.5085 15.747 13.0778 13.9395 12.7546C12.3961 12.4831 10.8606 12.2961 9.35775 12.1733C9.33072 12.3761 9.31156 12.5732 9.27551 12.7839C8.42382 17.5723 5.73806 20.822 3.26185 22.8789C4.57266 24.5027 6.23072 25.8123 8.11418 26.7113C9.99764 27.6103 12.0586 28.0759 14.1457 28.0739Z" fill="#FAFAFA"/>
<path d="M27.7018 17.5906C25.361 16.3106 22.9103 15.2426 20.3791 14.3994C20.3351 14.5796 20.2822 14.7576 20.2428 14.9412C19.3145 19.3343 20.4872 23.0729 21.9022 25.7267C24.7694 23.8192 26.8339 20.9229 27.7018 17.5906Z" fill="#FAFAFA"/>
<path d="M0.445381 11.1802C3.06814 10.8859 5.711 10.8124 8.34606 10.9606C8.57583 7.97287 7.92947 4.98301 6.48608 2.35693C3.38485 4.38364 1.21284 7.55615 0.445381 11.1802Z" fill="#FAFAFA"/>
<path d="M2.58142 21.9648C4.88414 20.0364 7.36599 17.0085 8.15346 12.5896C8.18163 12.4229 8.1974 12.2618 8.21993 12.0985C5.56339 11.9519 2.89913 12.0367 0.25729 12.3519C-0.16875 15.734 0.659266 19.155 2.5848 21.9682L2.58142 21.9648Z" fill="#FAFAFA"/>
<path d="M14.1457 0.0737529C11.8133 0.0695689 9.51709 0.650513 7.46736 1.76339C9.03346 4.59178 9.73575 7.81724 9.48731 11.0406C11.015 11.1668 12.5741 11.356 14.1423 11.632C15.9923 11.9628 17.8209 12.4033 19.6186 12.951C20.604 9.89494 22.4556 7.1906 24.9484 5.16631C23.6362 3.57185 21.9868 2.28812 20.1188 1.40754C18.2509 0.526955 16.2109 0.071429 14.1457 0.0737529Z" fill="#FAFAFA"/>
</svg>
