<svg width="29" height="29" viewBox="0 0 29 29" fill="none" xmlns="http://www.w3.org/2000/svg">
<path d="M26.2489 21.8445C27.7912 19.5468 28.6136 16.8415 28.6109 14.0742C28.6109 14.0129 28.6109 13.9516 28.6109 13.894C28.5712 10.7555 27.4728 7.72251 25.4938 5.28639C25.4792 5.26354 25.4624 5.24219 25.4436 5.22265C23.6176 2.98078 21.1411 1.36055 18.3556 0.585332C15.5701 -0.189885 12.6127 -0.0819178 9.8911 0.89435C7.89583 1.60728 6.08861 2.76424 4.60591 4.27788C3.12321 5.79151 2.00379 7.62226 1.33217 9.63187C0.660549 11.6415 0.454289 13.7774 0.728964 15.8784C1.00364 17.9794 1.75207 19.9905 2.91774 21.7599C2.92987 21.7833 2.94424 21.8055 2.96064 21.8261C4.62223 24.3282 7.04523 26.2287 9.87099 27.2464C12.6968 28.2642 15.7751 28.3451 18.6504 27.4771C18.6688 27.4771 18.6847 27.4685 18.7019 27.4624C21.7754 26.5168 24.4321 24.5467 26.2293 21.8801C26.2354 21.869 26.2415 21.8555 26.2489 21.8445ZM20.8237 21.4596L18.6173 19.1539C18.6933 18.9479 18.7852 18.6697 18.9115 18.2958L20.8727 12.3654L24.0867 10.7522L27.6794 14.1171C27.6743 16.6046 26.9548 19.0382 25.6066 21.1286L20.8237 21.4596ZM7.83059 21.5613L3.587 21.0882C2.25923 19.0104 1.55009 16.5976 1.54243 14.1318L5.547 11.0048L7.48738 12.1472L9.4486 18.2468C9.57975 18.6562 9.67414 18.9479 9.75014 19.1625L7.83059 21.5613ZM24.6027 5.66149L23.7863 9.8574L20.5589 11.473L14.875 7.33961L14.8849 4.17704L19.1321 1.81125C21.258 2.59971 23.143 3.92636 24.6027 5.66149ZM10.0259 1.83576L13.9545 4.16479L13.9447 7.31632L8.6825 10.7755C8.31477 11.0207 8.06962 11.18 7.88943 11.3051L5.88163 10.1246L4.82257 5.42613C6.23815 3.82275 8.02455 2.59012 10.0259 1.83576ZM10.1019 26.3407L8.55011 22.1559L10.5015 19.7165C11.009 19.7435 12.0227 19.7435 14.1384 19.7447H15.5774C16.9429 19.7447 17.5705 19.7447 17.8794 19.73L20.1213 22.0688L18.2067 26.6362C15.5424 27.4022 12.7033 27.2987 10.1019 26.3407Z" fill="#FAFAFA"/>
</svg>
