<svg width="39" height="32" viewBox="0 0 39 32" fill="none" xmlns="http://www.w3.org/2000/svg">
<path d="M38.7844 18.0192V17.9842C38.8895 16.2861 38.6933 14.581 38.2168 12.9458C38.1747 12.8131 38.0696 12.7083 37.9365 12.6663C36.3036 12.1911 34.6007 12.0025 32.8979 12.1073H32.8558C32.169 12.1492 31.4893 12.247 30.8095 12.3868C30.7675 12.3868 30.7184 12.4008 30.6764 12.4148C30.4591 12.4637 30.2419 12.5126 30.0247 12.5685C30.6273 9.66846 29.9616 6.64963 28.1956 4.27371C26.4297 1.89778 23.7247 0.381375 20.7674 0.11583C17.8101 -0.149715 14.8808 0.849573 12.7084 2.86911H12.6804V2.89008C10.592 4.85371 9.40773 7.58603 9.40773 10.4441C9.40773 10.6538 9.40773 10.8494 9.43576 11.0661C8.55979 11.2198 7.70483 11.4853 6.89193 11.8627C3.81551 13.2673 1.61506 16.0695 0.991369 19.3818C0.367675 22.6941 1.39081 26.1043 3.74543 28.5291L3.77346 28.5571C5.72864 30.5696 8.41262 31.7087 11.2227 31.7087C12.1618 31.7087 13.1008 31.5759 14.0048 31.3313H14.0469C16.0371 30.7723 17.8171 29.6402 19.1556 28.0679C19.2397 29.0183 19.4149 29.9477 19.6812 30.8631C19.7232 30.9959 19.8283 31.1007 19.9615 31.1427C22.5543 31.9044 25.3014 31.9393 27.9153 31.2405C30.5222 30.5417 32.8908 29.1371 34.7479 27.1874C36.612 25.2378 37.8944 22.8059 38.462 20.1785C38.4761 20.1435 38.4831 20.1016 38.4831 20.0666C38.6442 19.3888 38.7353 18.704 38.7844 18.0192ZM31.6995 13.0437C32.0429 12.9878 32.3863 12.9528 32.7367 12.9179L37.9575 18.1449C37.9294 18.4943 37.8874 18.8368 37.8313 19.1792L31.6995 13.0437ZM32.9539 18.1379C33.003 18.1869 33.031 18.2498 33.031 18.3196C33.031 18.3895 33.003 18.4524 32.9539 18.5013L32.2531 19.2071C32.092 19.3678 32.092 19.6194 32.2531 19.7801L32.8488 20.3811C32.8979 20.43 32.9259 20.4929 32.9189 20.5628C32.9189 20.6327 32.8908 20.6956 32.8488 20.7445L32.6316 20.9611C32.5334 21.0589 32.3723 21.0589 32.2742 20.9611L31.6785 20.3601C31.6014 20.2833 31.4963 20.2413 31.3912 20.2413C31.2791 20.2413 31.1809 20.2833 31.1039 20.3601L30.0737 21.3874C29.9966 21.4642 29.9546 21.5691 29.9546 21.6739C29.9546 21.7857 29.9966 21.8835 30.0737 21.9604L30.6694 22.5544C30.7184 22.6033 30.7465 22.6662 30.7465 22.7361C30.7465 22.8059 30.7184 22.8688 30.6694 22.9178L30.4521 23.1344C30.4031 23.1833 30.34 23.2113 30.2699 23.2113C30.1999 23.2113 30.1368 23.1833 30.0877 23.1344L29.4921 22.5334C29.415 22.4565 29.3099 22.4146 29.2047 22.4146C29.0996 22.4146 28.9945 22.4565 28.9174 22.5334L27.8803 23.5607C27.8032 23.6375 27.7611 23.7423 27.7541 23.8472C27.7541 23.959 27.7962 24.0638 27.8803 24.1337L28.4759 24.7277C28.525 24.7766 28.553 24.8395 28.553 24.9093C28.553 24.9792 28.525 25.0421 28.4759 25.091L28.2587 25.3077C28.1606 25.4055 27.9994 25.4055 27.9013 25.3077L27.3056 24.7137C27.1445 24.553 26.8922 24.553 26.731 24.7137L25.8831 25.5592C25.7849 25.6571 25.6238 25.6571 25.5257 25.5592L25.3084 25.3426C25.2594 25.2937 25.2313 25.2308 25.2313 25.1609C25.2313 25.091 25.2594 25.0281 25.3084 24.9792L26.1564 24.1337C26.2334 24.0568 26.2755 23.952 26.2825 23.8472C26.2825 23.7354 26.2404 23.6305 26.1564 23.5607L25.5537 22.9667C25.5046 22.9178 25.4766 22.8549 25.4766 22.785C25.4766 22.7151 25.5046 22.6522 25.5537 22.6033L25.7709 22.3867C25.82 22.3378 25.8831 22.3168 25.9531 22.3098C26.0232 22.3098 26.0863 22.3378 26.1353 22.3867L26.731 22.9806C26.8922 23.1414 27.1515 23.1414 27.3056 22.9806L28.3358 21.9534C28.4129 21.8765 28.4549 21.7717 28.4549 21.6669C28.4549 21.5621 28.4129 21.4573 28.3358 21.3804L27.7401 20.7864C27.642 20.6886 27.642 20.5279 27.7401 20.423L27.9574 20.2064C28.0625 20.1156 28.2166 20.1156 28.3218 20.2064L28.9174 20.7864C29.0786 20.9471 29.3309 20.9471 29.4921 20.7864L30.5222 19.7592C30.6834 19.5984 30.6834 19.3469 30.5222 19.1862L29.9265 18.5922C29.8775 18.5433 29.8495 18.4804 29.8495 18.4105C29.8495 18.3406 29.8775 18.2777 29.9265 18.2288L30.1438 18.0122C30.1928 17.9632 30.2559 17.9353 30.326 17.9353C30.3961 17.9353 30.4591 17.9632 30.5082 18.0122L31.1039 18.6061C31.1809 18.683 31.2861 18.7249 31.3912 18.7249C31.5033 18.7249 31.6014 18.683 31.6785 18.6061L32.3793 17.9353C32.4774 17.8375 32.6386 17.8375 32.7367 17.9353L32.9539 18.1379ZM33.1221 17.1946C32.9189 17.0758 32.6736 17.0199 32.4353 17.0478C32.1971 17.0758 31.9728 17.1806 31.7976 17.3413L31.3912 17.7466L31.0828 17.4391C30.8796 17.2365 30.6063 17.1247 30.326 17.1247C30.0387 17.1247 29.7724 17.2365 29.5692 17.4391L29.3519 17.6558C29.1487 17.8584 29.0366 18.131 29.0366 18.4175C29.0366 18.704 29.1487 18.9695 29.3519 19.1722L29.6603 19.4796L29.2047 19.9339L28.8964 19.6264C28.6932 19.4307 28.4199 19.3259 28.1396 19.3259C27.8592 19.3259 27.5859 19.4377 27.3827 19.6264L27.1795 19.843C26.9763 20.0457 26.8641 20.3182 26.8641 20.5977C26.8641 20.8842 26.9763 21.1568 27.1795 21.3524L27.4878 21.6599L27.0323 22.1141L26.724 21.8067C26.5208 21.604 26.2475 21.4922 25.9671 21.4922C25.6798 21.4922 25.4065 21.604 25.2103 21.8067L24.9931 22.0233C24.7898 22.2259 24.6777 22.4985 24.6777 22.778C24.6777 23.0645 24.7898 23.3301 24.9931 23.5327L25.3014 23.8402L24.7268 24.3992C24.5516 24.5739 24.4465 24.8045 24.4184 25.0491C24.3974 25.2937 24.4535 25.5383 24.5866 25.7479L23.6125 26.6913L20.3399 23.4279C20.9496 20.9332 22.239 18.662 24.075 16.8591C25.9111 15.0562 28.2096 13.8054 30.7184 13.2393L33.893 16.4049L33.1221 17.1946ZM25.4556 30.8352L20.0105 25.3985C20.0456 25.0561 20.0876 24.7207 20.1437 24.3852L26.4787 30.6954C26.1353 30.7583 25.799 30.8002 25.4556 30.8352ZM14.9159 22.2958L13.7666 18.7459L16.5907 15.5244H18.8893C19.8984 16.8312 20.5431 18.3755 20.7674 20.0107C20.0456 21.4083 19.555 22.9108 19.3097 24.4551L18.3427 24.8604L14.9159 22.2958ZM4.49527 28.1238L4.69849 25.5103L7.97113 23.0645L10.8303 25.1609V28.7458L8.43365 30.4858C6.94799 30.0246 5.59549 29.214 4.49527 28.1238ZM3.73142 27.2783C3.17079 26.5725 2.70828 25.7968 2.3649 24.9652L3.85055 25.5662L3.73142 27.2783ZM11.2368 24.4551L8.37758 22.3937L9.46379 19.0604H12.9817L14.103 22.3937L11.2368 24.4551ZM7.39649 12.5545C8.60884 12.0164 9.92631 11.7369 11.2508 11.7369C12.5893 11.7369 13.9137 12.0094 15.1401 12.5545L15.96 15.0003L13.1359 18.2218H9.3797L6.5906 15.0003L7.39649 12.5545ZM21.384 18.9206C21.1458 17.9143 20.7533 16.957 20.2348 16.0695V10.8774H23.2551C23.3112 12.4707 23.7247 14.036 24.4535 15.4476C24.0961 15.7341 23.7527 16.0415 23.4303 16.37C22.6525 17.1387 21.9657 17.9982 21.384 18.9206ZM16.6958 14.7068L16.1702 13.1066C16.9131 13.5468 17.5858 14.0849 18.1885 14.7068H16.6958ZM20.2278 10.0598V0.898489C22.3792 0.989333 24.4394 1.79994 26.0723 3.20454C24.3413 5.07733 23.3392 7.50916 23.2411 10.0598H20.2278ZM19.4149 10.0598H16.4015C16.3104 7.51615 15.3013 5.08432 13.5704 3.21153C15.2032 1.80693 17.2635 0.989333 19.4149 0.898489V10.0598ZM16.3805 10.8704H19.4079V14.8676C18.5389 13.7844 17.4667 12.883 16.2543 12.2191C16.3314 11.7788 16.3735 11.3246 16.3805 10.8704ZM18.7001 25.5453L19.1836 25.3566C19.1416 25.8318 19.1135 26.3069 19.1135 26.7891C19.0154 26.9289 18.9173 27.0686 18.8122 27.1944L18.7001 25.5453ZM37.502 13.3721C37.8313 14.5601 37.9995 15.79 37.9995 17.0199L33.8439 12.8899C35.0843 12.8899 36.3106 13.0577 37.509 13.3861L37.502 13.3721ZM25.1052 14.9304C24.4745 13.6586 24.1241 12.268 24.068 10.8564H29.422C29.394 11.5203 29.2958 12.1772 29.1347 12.827C27.6911 13.3162 26.3315 14.029 25.1052 14.9304ZM29.422 10.0388H24.068C24.1591 7.69784 25.0842 5.46167 26.6819 3.74262C28.3498 5.43372 29.3309 7.68386 29.422 10.0598V10.0388ZM12.9677 3.76358C14.5585 5.48962 15.4835 7.7188 15.5746 10.0598H10.2276C10.3328 7.69085 11.3068 5.44769 12.9677 3.76358ZM10.2417 10.8704H15.5536C15.5536 11.1919 15.5115 11.5133 15.4695 11.8347C14.138 11.2338 12.6944 10.9263 11.2368 10.9193C10.9004 10.9193 10.564 10.9193 10.2276 10.9682C10.2417 10.9403 10.2417 10.9123 10.2417 10.8704ZM6.35934 13.0786L5.83375 14.7068H4.31306C4.91573 14.0779 5.6095 13.5259 6.35934 13.0786ZM3.61228 15.5244H5.94588L8.73498 18.7459L7.55767 22.3028L4.21495 24.8325L2.0075 23.945C1.18058 21.045 1.77624 17.9213 3.61228 15.5244ZM9.48481 30.7374L11.2368 29.4585L13.0027 30.7374C12.4211 30.8492 11.8324 30.9051 11.2368 30.8981C10.6481 30.8981 10.0595 30.8422 9.48481 30.7374ZM14.0539 30.4858L11.6432 28.7528V25.1679L14.5514 23.0575L17.8661 25.5033L18.0483 28.0609C16.9341 29.186 15.5676 30.0176 14.0539 30.4858ZM20.438 30.4089C20.0876 29.1371 19.9264 27.8164 19.9474 26.4956L24.3694 30.8981C23.0379 30.919 21.7134 30.7583 20.438 30.4089ZM33.928 26.852C32.134 28.6409 29.8845 29.9128 27.4248 30.5207L24.2012 27.2713L25.1823 26.3069C25.3855 26.4188 25.6168 26.4677 25.848 26.4327C26.0793 26.3978 26.2895 26.293 26.4577 26.1253L27.0183 25.5662L27.3267 25.8737C27.5299 26.0763 27.8032 26.1882 28.0835 26.1882C28.3708 26.1882 28.6441 26.0763 28.8403 25.8737L29.0576 25.6571C29.2608 25.4544 29.3729 25.1819 29.3729 24.9024C29.3729 24.6158 29.2608 24.3503 29.0576 24.1477L28.7492 23.8402L29.1977 23.386L29.5061 23.6934C29.7093 23.8961 29.9826 24.0079 30.2699 24.0079C30.5572 24.0079 30.8306 23.8961 31.0268 23.6934L31.244 23.4768C31.4472 23.2741 31.5594 23.0016 31.5594 22.7151C31.5594 22.4286 31.4472 22.1561 31.244 21.9604L30.9357 21.6529L31.3912 21.2057L31.6995 21.5132C31.9027 21.7088 32.176 21.8137 32.4564 21.8137C32.7367 21.8137 33.01 21.7018 33.2132 21.5132L33.4304 21.2965C33.6337 21.0939 33.7458 20.8214 33.7458 20.5418C33.7458 20.2553 33.6337 19.9898 33.4304 19.7871L33.1221 19.4796L33.5286 19.0743C33.7318 18.8717 33.8439 18.5992 33.8439 18.3126C33.8509 18.124 33.8089 17.9353 33.7178 17.7676L34.4956 16.9779L37.6632 20.1365C37.0815 22.6802 35.7851 25.0072 33.928 26.845V26.852Z" fill="#FAFAFA"/>
</svg>
