<svg width="29" height="29" viewBox="0 0 29 29" fill="none" xmlns="http://www.w3.org/2000/svg">
<mask id="path-1-inside-1_957_18802" fill="white">
<path d="M6.35157 1.21123C6.19845 1.33154 6.18751 1.57764 6.3297 1.71436C6.38985 1.76357 8.06876 2.57842 10.0703 3.51357C12.0719 4.4542 13.7125 5.23076 13.718 5.23623C13.7289 5.2417 13.6469 5.42217 13.543 5.62998C13.0836 6.52139 13.2258 7.50576 13.9149 8.18936C14.2703 8.54482 14.5547 8.69795 15.0524 8.80186C15.7633 8.94951 16.507 8.72529 17.0266 8.20576C17.2891 7.94326 17.6172 7.36904 17.6172 7.1667C17.6172 7.11748 17.6336 7.07373 17.65 7.07373C17.6828 7.07373 17.9016 7.18311 17.9453 7.22139C17.9563 7.23232 18.0219 7.77373 18.082 8.41904L18.1969 9.58936L17.8086 9.7042C17.6008 9.76982 17.1524 9.90107 16.8133 9.99951L16.2008 10.18L15.0086 9.53467C13.8383 8.90029 13.7781 8.87842 12.0664 8.29873L10.3164 7.70811L8.8672 6.39014C8.06876 5.66826 7.27579 4.94639 7.10079 4.78779C6.65782 4.38857 6.58126 4.39951 6.0672 4.92451C5.59688 5.4167 5.53673 5.53701 5.67345 5.75029C5.81017 5.95811 8.2547 9.0917 8.42423 9.27764C8.50079 9.36514 9.11876 9.78076 9.79688 10.2019C10.475 10.6229 11.0383 10.9784 11.0492 10.9894C11.0711 11.0058 9.98282 16.2667 9.90626 16.4854C9.88438 16.5675 9.28829 17.4644 8.59376 18.4815C7.89376 19.4987 7.30313 20.3956 7.27579 20.4722C7.21563 20.6581 6.23673 26.4659 6.23126 26.6683C6.22579 26.7776 6.26954 26.8706 6.35157 26.9362C6.45548 27.0183 6.57579 27.0347 7.2047 27.0347C7.8336 27.0347 7.95392 27.0183 8.03595 26.9362C8.08517 26.887 8.55548 25.7331 9.08048 24.3823L10.032 21.9214L10.8797 21.4019C11.3445 21.1175 11.7547 20.8769 11.7875 20.8659C11.8203 20.8604 12.0227 21.1995 12.2305 21.6261L12.6133 22.4026L15.3914 24.7214L18.1641 27.0347H18.9734C19.6133 27.0347 19.8047 27.0183 19.9031 26.9472C20.1766 26.7558 20.1602 26.7229 17.7703 23.3815L15.5172 20.2315L15.3039 18.487L15.0906 16.7479L15.4297 15.5339C15.6156 14.8667 15.7906 14.2323 15.8234 14.1284C15.8727 13.9479 15.9656 13.8878 17.9617 12.7886C19.1102 12.1542 20.1055 11.5909 20.182 11.5253C20.3461 11.3831 20.3516 11.4104 20.1055 9.7042C19.9961 8.93857 19.9195 8.28232 19.925 8.23857C19.9359 8.19482 20.5047 8.43545 21.6258 8.96045C22.55 9.39795 23.3539 9.75342 23.4141 9.75342C23.6656 9.75342 23.8297 9.39795 23.6766 9.19014C23.6383 9.14092 22.7469 8.69795 21.6914 8.20576L19.7774 7.30889L19.7172 6.91514C19.6242 6.29717 19.5313 6.25889 18.7766 6.48857L18.3172 6.63076L17.9672 6.45576C17.6992 6.32451 17.6172 6.25889 17.6172 6.16592C17.6172 5.96357 17.2836 5.37842 17.0156 5.11045C16.4852 4.59639 15.7633 4.37764 15.0633 4.52529C14.85 4.56904 14.6039 4.64014 14.5219 4.68389C14.3797 4.76045 14.3414 4.74951 13.8766 4.53076C13.6031 4.40498 11.8586 3.58467 9.99923 2.7042C8.13985 1.8292 6.58673 1.11279 6.54845 1.11279C6.5047 1.11279 6.4172 1.15654 6.35157 1.21123ZM15.9984 5.26904C16.343 5.40029 16.6711 5.69561 16.8242 6.00732C16.9719 6.31904 16.9992 6.9042 16.8789 7.22139C16.4305 8.39717 14.7516 8.50654 14.15 7.40732C13.6031 6.40107 14.3195 5.18154 15.468 5.16514C15.5938 5.15967 15.8344 5.20889 15.9984 5.26904ZM8.44063 6.95889L9.96095 8.33701L11.7656 8.94404C13.532 9.5292 13.5977 9.55654 14.6805 10.1472C15.2875 10.4808 15.7961 10.7597 15.807 10.7761C15.9 10.8526 15.2492 13.6362 14.6641 15.6815L14.3852 16.6659L14.6039 18.4706C14.7297 19.4659 14.85 20.3464 14.8774 20.4229C14.9102 20.5269 17.8414 24.6776 18.9734 26.2253C19.0391 26.3183 19.0227 26.3237 18.7274 26.3183H18.4102L15.7906 24.1472L13.1766 21.9761L11.8914 19.3237L10.6063 16.6714L11.1859 13.8276C11.5031 12.2636 11.7656 10.9183 11.7656 10.8417C11.7656 10.7651 11.7328 10.6667 11.7 10.6175C11.6617 10.5683 11.0875 10.1909 10.4258 9.77529C9.76407 9.36514 9.15704 8.98232 9.07501 8.92217C8.99845 8.86748 8.3586 8.09639 7.66407 7.20498L6.40079 5.58623L6.5211 5.45498L6.64688 5.32373L6.7836 5.44951C6.86017 5.52061 7.60938 6.19873 8.44063 6.95889ZM19.3453 9.26123C19.4875 10.2675 19.5805 11.0987 19.5531 11.1097C19.5258 11.1151 18.7547 11.5417 17.8359 12.0448C16.9172 12.5534 16.1625 12.9636 16.1516 12.9526C16.1461 12.9472 16.2008 12.63 16.2774 12.2526C16.3539 11.8753 16.4305 11.4214 16.4469 11.2409C16.4688 11.0604 16.4961 10.8909 16.518 10.8581C16.5344 10.8308 16.9063 10.705 17.3438 10.5792C18.5852 10.2183 18.8149 10.1362 18.875 10.0214C18.9188 9.95029 18.9024 9.57295 18.8203 8.75811C18.7602 8.11826 18.6945 7.5167 18.6836 7.41826C18.6563 7.2542 18.6672 7.23779 18.8313 7.19404C18.9953 7.15029 19.0172 7.15576 19.05 7.28701C19.0719 7.36357 19.2031 8.25498 19.3453 9.26123ZM10.8742 18.8261L11.5305 20.1823L10.5188 20.8058C9.96642 21.1448 9.4797 21.4729 9.44142 21.5386C9.4086 21.5987 8.9711 22.6979 8.47892 23.9831L7.58204 26.3237H7.29767C7.06798 26.3237 7.00782 26.3073 7.00782 26.2362C7.00782 26.187 7.2211 24.9183 7.47813 23.4144L7.94298 20.6745L9.0422 19.0667C9.64923 18.1862 10.1578 17.4644 10.1797 17.4644C10.1961 17.4644 10.5078 18.0769 10.8742 18.8261Z"/>
</mask>
<path d="M6.35157 1.21123C6.19845 1.33154 6.18751 1.57764 6.3297 1.71436C6.38985 1.76357 8.06876 2.57842 10.0703 3.51357C12.0719 4.4542 13.7125 5.23076 13.718 5.23623C13.7289 5.2417 13.6469 5.42217 13.543 5.62998C13.0836 6.52139 13.2258 7.50576 13.9149 8.18936C14.2703 8.54482 14.5547 8.69795 15.0524 8.80186C15.7633 8.94951 16.507 8.72529 17.0266 8.20576C17.2891 7.94326 17.6172 7.36904 17.6172 7.1667C17.6172 7.11748 17.6336 7.07373 17.65 7.07373C17.6828 7.07373 17.9016 7.18311 17.9453 7.22139C17.9563 7.23232 18.0219 7.77373 18.082 8.41904L18.1969 9.58936L17.8086 9.7042C17.6008 9.76982 17.1524 9.90107 16.8133 9.99951L16.2008 10.18L15.0086 9.53467C13.8383 8.90029 13.7781 8.87842 12.0664 8.29873L10.3164 7.70811L8.8672 6.39014C8.06876 5.66826 7.27579 4.94639 7.10079 4.78779C6.65782 4.38857 6.58126 4.39951 6.0672 4.92451C5.59688 5.4167 5.53673 5.53701 5.67345 5.75029C5.81017 5.95811 8.2547 9.0917 8.42423 9.27764C8.50079 9.36514 9.11876 9.78076 9.79688 10.2019C10.475 10.6229 11.0383 10.9784 11.0492 10.9894C11.0711 11.0058 9.98282 16.2667 9.90626 16.4854C9.88438 16.5675 9.28829 17.4644 8.59376 18.4815C7.89376 19.4987 7.30313 20.3956 7.27579 20.4722C7.21563 20.6581 6.23673 26.4659 6.23126 26.6683C6.22579 26.7776 6.26954 26.8706 6.35157 26.9362C6.45548 27.0183 6.57579 27.0347 7.2047 27.0347C7.8336 27.0347 7.95392 27.0183 8.03595 26.9362C8.08517 26.887 8.55548 25.7331 9.08048 24.3823L10.032 21.9214L10.8797 21.4019C11.3445 21.1175 11.7547 20.8769 11.7875 20.8659C11.8203 20.8604 12.0227 21.1995 12.2305 21.6261L12.6133 22.4026L15.3914 24.7214L18.1641 27.0347H18.9734C19.6133 27.0347 19.8047 27.0183 19.9031 26.9472C20.1766 26.7558 20.1602 26.7229 17.7703 23.3815L15.5172 20.2315L15.3039 18.487L15.0906 16.7479L15.4297 15.5339C15.6156 14.8667 15.7906 14.2323 15.8234 14.1284C15.8727 13.9479 15.9656 13.8878 17.9617 12.7886C19.1102 12.1542 20.1055 11.5909 20.182 11.5253C20.3461 11.3831 20.3516 11.4104 20.1055 9.7042C19.9961 8.93857 19.9195 8.28232 19.925 8.23857C19.9359 8.19482 20.5047 8.43545 21.6258 8.96045C22.55 9.39795 23.3539 9.75342 23.4141 9.75342C23.6656 9.75342 23.8297 9.39795 23.6766 9.19014C23.6383 9.14092 22.7469 8.69795 21.6914 8.20576L19.7774 7.30889L19.7172 6.91514C19.6242 6.29717 19.5313 6.25889 18.7766 6.48857L18.3172 6.63076L17.9672 6.45576C17.6992 6.32451 17.6172 6.25889 17.6172 6.16592C17.6172 5.96357 17.2836 5.37842 17.0156 5.11045C16.4852 4.59639 15.7633 4.37764 15.0633 4.52529C14.85 4.56904 14.6039 4.64014 14.5219 4.68389C14.3797 4.76045 14.3414 4.74951 13.8766 4.53076C13.6031 4.40498 11.8586 3.58467 9.99923 2.7042C8.13985 1.8292 6.58673 1.11279 6.54845 1.11279C6.5047 1.11279 6.4172 1.15654 6.35157 1.21123ZM15.9984 5.26904C16.343 5.40029 16.6711 5.69561 16.8242 6.00732C16.9719 6.31904 16.9992 6.9042 16.8789 7.22139C16.4305 8.39717 14.7516 8.50654 14.15 7.40732C13.6031 6.40107 14.3195 5.18154 15.468 5.16514C15.5938 5.15967 15.8344 5.20889 15.9984 5.26904ZM8.44063 6.95889L9.96095 8.33701L11.7656 8.94404C13.532 9.5292 13.5977 9.55654 14.6805 10.1472C15.2875 10.4808 15.7961 10.7597 15.807 10.7761C15.9 10.8526 15.2492 13.6362 14.6641 15.6815L14.3852 16.6659L14.6039 18.4706C14.7297 19.4659 14.85 20.3464 14.8774 20.4229C14.9102 20.5269 17.8414 24.6776 18.9734 26.2253C19.0391 26.3183 19.0227 26.3237 18.7274 26.3183H18.4102L15.7906 24.1472L13.1766 21.9761L11.8914 19.3237L10.6063 16.6714L11.1859 13.8276C11.5031 12.2636 11.7656 10.9183 11.7656 10.8417C11.7656 10.7651 11.7328 10.6667 11.7 10.6175C11.6617 10.5683 11.0875 10.1909 10.4258 9.77529C9.76407 9.36514 9.15704 8.98232 9.07501 8.92217C8.99845 8.86748 8.3586 8.09639 7.66407 7.20498L6.40079 5.58623L6.5211 5.45498L6.64688 5.32373L6.7836 5.44951C6.86017 5.52061 7.60938 6.19873 8.44063 6.95889ZM19.3453 9.26123C19.4875 10.2675 19.5805 11.0987 19.5531 11.1097C19.5258 11.1151 18.7547 11.5417 17.8359 12.0448C16.9172 12.5534 16.1625 12.9636 16.1516 12.9526C16.1461 12.9472 16.2008 12.63 16.2774 12.2526C16.3539 11.8753 16.4305 11.4214 16.4469 11.2409C16.4688 11.0604 16.4961 10.8909 16.518 10.8581C16.5344 10.8308 16.9063 10.705 17.3438 10.5792C18.5852 10.2183 18.8149 10.1362 18.875 10.0214C18.9188 9.95029 18.9024 9.57295 18.8203 8.75811C18.7602 8.11826 18.6945 7.5167 18.6836 7.41826C18.6563 7.2542 18.6672 7.23779 18.8313 7.19404C18.9953 7.15029 19.0172 7.15576 19.05 7.28701C19.0719 7.36357 19.2031 8.25498 19.3453 9.26123ZM10.8742 18.8261L11.5305 20.1823L10.5188 20.8058C9.96642 21.1448 9.4797 21.4729 9.44142 21.5386C9.4086 21.5987 8.9711 22.6979 8.47892 23.9831L7.58204 26.3237H7.29767C7.06798 26.3237 7.00782 26.3073 7.00782 26.2362C7.00782 26.187 7.2211 24.9183 7.47813 23.4144L7.94298 20.6745L9.0422 19.0667C9.64923 18.1862 10.1578 17.4644 10.1797 17.4644C10.1961 17.4644 10.5078 18.0769 10.8742 18.8261Z" fill="#D9D9D9" stroke="white" stroke-width="20" mask="url(#path-1-inside-1_957_18802)"/>
</svg>
